<svg xmlns="http://www.w3.org/2000/svg" xmlns:xlink="http://www.w3.org/1999/xlink" width="500" zoomAndPan="magnify" viewBox="0 0 375 149.999998" height="200" preserveAspectRatio="xMidYMid meet" version="1.0"><defs><g/><clipPath id="0486cd0bf4"><path d="M 22 1.613281 L 74 1.613281 L 74 148.921875 L 22 148.921875 Z M 22 1.613281 " clip-rule="nonzero"/></clipPath></defs><g clip-path="url(#0486cd0bf4)"><path stroke-linecap="butt" transform="matrix(0.0763582, 0, 0, 0.0763582, 22.585528, 1.794691)" fill-opacity="1" fill="#7fb069" fill-rule="evenodd" stroke-linejoin="round" d="M 335.032214 1.000588 C 331.400071 1.051745 327.205201 1.870256 322.140663 3.81422 C 308.788699 -2.375771 297.329543 4.428104 285.665759 8.571816 C 265.35645 15.88726 257.682908 14.608336 250.162836 12.562058 C 243.05202 10.618094 242.642765 16.961556 243.461276 21.974937 C 245.609868 34.968802 247.75846 51.59481 249.548953 70.36941 L 245.916809 70.36941 C 244.944827 67.555778 243.205491 66.276855 241.056899 66.123384 C 240.596487 63.821321 239.931446 61.570415 238.601366 59.524137 L 207.651412 54.868855 C 207.651412 54.868855 207.446784 56.045465 207.395627 56.30125 C 205.860919 60.496119 205.093564 65.5095 204.275053 70.113626 C 203.1496 71.239079 202.586874 72.569159 202.586874 73.89924 C 202.586874 75.229321 203.200757 76.559401 204.275053 77.684854 C 205.195878 81.930881 206.065546 86.790791 207.395627 91.49723 C 207.446784 91.753015 207.651412 92.929625 207.651412 92.929625 L 238.652523 87.14889 C 239.471034 85.563024 240.238388 84.642199 241.056899 80.958899 C 243.154334 80.396172 244.995984 79.93576 245.916809 76.303617 L 250.060522 76.303617 L 250.111679 76.9175 C 251.748702 95.487472 252.976468 115.847938 253.539195 136.822287 L 249.907051 136.822287 C 248.935069 134.008655 247.195733 132.729731 245.047141 132.57626 C 244.586729 130.274197 243.921688 128.023292 242.591608 125.977014 L 211.641654 121.321731 C 211.641654 121.321731 211.437026 122.498341 211.437026 122.754126 C 209.902318 126.948996 209.083806 131.962377 208.265295 136.566502 C 207.190999 137.691955 206.577116 139.022036 206.577116 140.352116 C 206.577116 141.682197 207.190999 142.961121 208.265295 144.137731 C 209.18612 148.383757 210.055788 153.243667 211.437026 157.950107 C 211.437026 158.205891 211.641654 159.382501 211.641654 159.382501 L 242.642765 153.601766 C 243.461276 152.015901 244.22863 151.095076 245.047141 147.411775 C 247.144576 146.849049 248.986226 146.337479 249.907051 142.756493 L 253.641509 142.756493 L 253.641509 142.961121 C 253.999607 163.526214 253.641509 184.449406 252.260271 204.554087 L 247.91193 204.50293 C 246.939948 201.740455 245.200612 200.461531 243.05202 200.30806 C 242.591608 198.005997 241.926567 195.703935 240.596487 193.657657 L 209.646533 189.053531 C 209.646533 189.053531 209.441905 190.230141 209.390748 190.434769 C 207.907197 194.680796 207.088685 199.694177 206.270174 204.298302 C 205.195878 205.423755 204.581995 206.702679 204.581995 208.083916 C 204.581995 209.413997 205.195878 210.692921 206.270174 211.818374 C 207.190999 216.115557 208.060667 220.924311 209.441905 225.681907 C 209.441905 225.886535 209.646533 227.063144 209.646533 227.063144 L 240.647644 221.333566 C 241.466155 219.696544 242.233509 218.826876 243.05202 215.143575 C 245.149455 214.580849 246.991105 214.069279 247.91193 210.437136 L 251.799858 210.488293 L 251.799858 210.692921 C 251.595231 213.097297 251.44176 215.501674 251.185975 217.906051 C 250.572092 224.709925 251.748702 229.416364 258.910674 233.457763 C 271.341813 240.517422 281.010476 259.650121 280.805848 280.419842 L 272.927678 1160.882086 C 268.783965 1162.621422 265.868019 1165.179269 264.589096 1168.657942 C 219.980236 1250.918315 134.08772 1182.368004 168.362875 1102.512007 C 172.864687 1082.458483 157.619916 1085.169802 146.058446 1092.178304 C 83.44234 1130.13676 27.78358 1249.127822 77.150036 1388.018938 C 99.04521 1449.560747 130.506733 1480.050289 70.908888 1553.818609 C 20.519293 1611.165548 -35.548722 1712.814405 31.773822 1817.225738 C 85.232834 1883.678614 188.621027 1919.335007 333.292878 1918.976908 C 404.912606 1918.823438 559.713533 1913.963527 631.742516 1816.969953 C 672.565761 1761.976233 693.898209 1644.008309 577.106895 1526.29617 C 523.596727 1439.738613 586.110518 1402.24057 595.369926 1327.96068 C 602.020329 1274.706297 599.309011 1206.872183 528.968207 1132.029567 C 515.513929 1117.705621 509.170467 1122.25859 507.686916 1138.833441 C 501.343454 1209.788129 432.435044 1226.721079 395.039315 1168.299843 C 392.890723 1164.974642 387.5704 1161.905225 387.5704 1161.905225 L 364.242832 279.959429 C 363.833576 265.0216 368.488858 244.609978 387.416929 232.281153 C 391.662956 229.518678 394.169647 224.300669 393.862705 218.571091 C 393.555763 215.859773 393.299979 213.301925 392.993037 210.692921 L 392.94188 210.437136 L 396.62518 210.437136 C 397.597162 214.069279 399.438812 214.580849 401.536247 215.143575 C 402.303602 218.826876 403.122113 219.696544 403.889467 221.333566 L 434.941735 227.063144 C 434.941735 227.063144 435.095206 225.886535 435.146363 225.681907 C 436.5276 220.924311 437.397268 216.115557 438.266936 211.818374 C 439.392389 210.692921 439.955116 209.413997 440.006273 208.032759 C 440.006273 206.702679 439.392389 205.423755 438.266936 204.298302 C 437.448425 199.64302 436.681071 194.680796 435.146363 190.434769 C 435.095206 190.230141 434.941735 189.053531 434.941735 189.053531 L 403.940624 193.657657 C 402.610543 195.703935 401.99666 197.954841 401.536247 200.30806 C 399.387655 200.461531 397.648319 201.740455 396.676337 204.50293 L 392.327997 204.554087 C 389.974777 181.891559 388.900481 161.531093 388.798167 142.961121 L 388.798167 142.756493 L 392.890723 142.756493 C 393.811548 146.337479 395.704355 146.849049 397.80179 147.411775 C 398.569144 151.095076 399.336499 151.964744 400.15501 153.601766 L 431.156121 159.331344 C 431.156121 159.331344 431.360748 158.154734 431.411905 157.950107 C 432.741986 153.19251 433.662811 148.383757 434.532479 144.086574 C 435.657932 142.961121 436.220659 141.682197 436.220659 140.352116 C 436.220659 139.022036 435.657932 137.691955 434.532479 136.566502 C 433.713968 131.962377 432.946614 126.948996 431.411905 122.702969 C 431.360748 122.498341 431.156121 121.321731 431.156121 121.321731 L 400.206167 125.977014 C 398.876086 127.972135 398.211046 130.274197 397.750633 132.57626 C 395.602041 132.729731 393.862705 134.008655 392.890723 136.77113 L 388.798167 136.822287 C 388.951638 114.773642 390.332876 95.129374 392.43031 76.9175 L 392.532624 76.303617 L 396.880965 76.303617 C 397.852947 79.884603 399.694597 80.396172 401.792032 80.958899 C 402.559386 84.642199 403.377897 85.511867 404.145252 87.14889 L 435.19752 92.878468 C 435.19752 92.878468 435.35099 91.753015 435.402147 91.49723 C 436.732228 86.739634 437.653053 81.930881 438.522721 77.633697 C 439.648174 76.508244 440.210901 75.229321 440.210901 73.89924 C 440.210901 72.569159 439.648174 71.239079 438.522721 70.113626 C 437.70421 65.5095 436.936856 60.496119 435.402147 56.30125 C 435.35099 56.045465 435.19752 54.868855 435.19752 54.868855 L 404.196409 59.524137 C 402.866328 61.519258 402.252445 63.821321 401.792032 66.123384 C 399.64344 66.276855 397.852947 67.555778 396.932122 70.318254 L 393.197665 70.36941 C 395.243943 53.94803 397.80179 38.498631 400.308481 23.305018 C 401.945503 13.38057 397.648319 13.329413 394.937001 13.687511 C 383.477844 15.068749 373.092984 14.659493 361.224572 10.669251 C 351.86285 7.548678 345.928644 0.847117 335.032214 1.000588 Z M 335.032214 1.000588 " stroke="#000000" stroke-width="0.991" stroke-opacity="1" stroke-miterlimit="4"/></g><g fill="#ffffff" fill-opacity="1"><g transform="translate(86.377366, 94.998043)"><g><path d="M 25.34375 0.609375 C 20.59375 0.609375 16.582031 -0.28125 13.3125 -2.0625 C 10.039062 -3.851562 7.550781 -6.394531 5.84375 -9.6875 C 4.132812 -12.976562 3.28125 -16.875 3.28125 -21.375 C 3.28125 -24.789062 3.773438 -27.859375 4.765625 -30.578125 C 5.765625 -33.296875 7.207031 -35.617188 9.09375 -37.546875 C 10.988281 -39.472656 13.296875 -40.953125 16.015625 -41.984375 C 18.734375 -43.023438 21.820312 -43.546875 25.28125 -43.546875 C 27.550781 -43.546875 29.832031 -43.269531 32.125 -42.71875 C 34.414062 -42.175781 36.578125 -41.253906 38.609375 -39.953125 C 39.304688 -39.503906 39.765625 -38.953125 39.984375 -38.296875 C 40.203125 -37.648438 40.226562 -36.992188 40.0625 -36.328125 C 39.90625 -35.660156 39.601562 -35.082031 39.15625 -34.59375 C 38.71875 -34.101562 38.160156 -33.796875 37.484375 -33.671875 C 36.816406 -33.554688 36.078125 -33.722656 35.265625 -34.171875 C 33.722656 -35.066406 32.160156 -35.710938 30.578125 -36.109375 C 28.992188 -36.515625 27.226562 -36.71875 25.28125 -36.71875 C 22.269531 -36.71875 19.726562 -36.117188 17.65625 -34.921875 C 15.59375 -33.734375 14.039062 -32 13 -29.71875 C 11.96875 -27.445312 11.453125 -24.664062 11.453125 -21.375 C 11.453125 -16.382812 12.648438 -12.585938 15.046875 -9.984375 C 17.441406 -7.390625 20.992188 -6.09375 25.703125 -6.09375 C 27.328125 -6.09375 28.972656 -6.253906 30.640625 -6.578125 C 32.304688 -6.898438 33.929688 -7.347656 35.515625 -7.921875 L 33.984375 -4.453125 L 33.984375 -17.421875 L 27.28125 -17.421875 C 26.269531 -17.421875 25.488281 -17.679688 24.9375 -18.203125 C 24.394531 -18.734375 24.125 -19.445312 24.125 -20.34375 C 24.125 -21.28125 24.394531 -21.988281 24.9375 -22.46875 C 25.488281 -22.957031 26.269531 -23.203125 27.28125 -23.203125 L 37.328125 -23.203125 C 38.347656 -23.203125 39.128906 -22.925781 39.671875 -22.375 C 40.222656 -21.832031 40.5 -21.050781 40.5 -20.03125 L 40.5 -5.234375 C 40.5 -4.335938 40.328125 -3.585938 39.984375 -2.984375 C 39.640625 -2.378906 39.082031 -1.929688 38.3125 -1.640625 C 36.519531 -0.992188 34.46875 -0.457031 32.15625 -0.03125 C 29.84375 0.394531 27.570312 0.609375 25.34375 0.609375 Z M 25.34375 0.609375 "/></g></g></g><g fill="#ffffff" fill-opacity="1"><g transform="translate(131.192862, 94.998043)"><g><path d="M 14.734375 0.609375 C 12.265625 0.609375 10.21875 0.15625 8.59375 -0.75 C 6.96875 -1.664062 5.757812 -3.035156 4.96875 -4.859375 C 4.175781 -6.691406 3.78125 -8.96875 3.78125 -11.6875 L 3.78125 -26.4375 C 3.78125 -27.726562 4.101562 -28.6875 4.75 -29.3125 C 5.394531 -29.945312 6.328125 -30.265625 7.546875 -30.265625 C 8.765625 -30.265625 9.707031 -29.945312 10.375 -29.3125 C 11.050781 -28.6875 11.390625 -27.726562 11.390625 -26.4375 L 11.390625 -11.578125 C 11.390625 -9.460938 11.816406 -7.894531 12.671875 -6.875 C 13.523438 -5.863281 14.882812 -5.359375 16.75 -5.359375 C 18.78125 -5.359375 20.441406 -6.054688 21.734375 -7.453125 C 23.035156 -8.859375 23.6875 -10.71875 23.6875 -13.03125 L 23.6875 -26.4375 C 23.6875 -27.726562 24.007812 -28.6875 24.65625 -29.3125 C 25.3125 -29.945312 26.25 -30.265625 27.46875 -30.265625 C 28.6875 -30.265625 29.628906 -29.945312 30.296875 -29.3125 C 30.972656 -28.6875 31.3125 -27.726562 31.3125 -26.4375 L 31.3125 -3.40625 C 31.3125 -0.8125 30.070312 0.484375 27.59375 0.484375 C 26.414062 0.484375 25.5 0.148438 24.84375 -0.515625 C 24.195312 -1.179688 23.875 -2.144531 23.875 -3.40625 L 23.875 -8.046875 L 24.734375 -6.21875 C 23.878906 -4.019531 22.585938 -2.332031 20.859375 -1.15625 C 19.128906 0.0195312 17.085938 0.609375 14.734375 0.609375 Z M 14.734375 0.609375 "/></g></g></g><g fill="#ffffff" fill-opacity="1"><g transform="translate(166.448525, 94.998043)"><g><path d="M 7.734375 0.421875 C 6.515625 0.421875 5.578125 0.0546875 4.921875 -0.671875 C 4.273438 -1.398438 3.953125 -2.414062 3.953125 -3.71875 L 3.953125 -26.0625 C 3.953125 -27.40625 4.273438 -28.429688 4.921875 -29.140625 C 5.578125 -29.847656 6.515625 -30.203125 7.734375 -30.203125 C 8.953125 -30.203125 9.894531 -29.847656 10.5625 -29.140625 C 11.238281 -28.429688 11.578125 -27.40625 11.578125 -26.0625 L 11.578125 -3.71875 C 11.578125 -2.414062 11.25 -1.398438 10.59375 -0.671875 C 9.945312 0.0546875 8.992188 0.421875 7.734375 0.421875 Z M 7.734375 -35.875 C 6.316406 -35.875 5.210938 -36.226562 4.421875 -36.9375 C 3.628906 -37.644531 3.234375 -38.628906 3.234375 -39.890625 C 3.234375 -41.191406 3.628906 -42.1875 4.421875 -42.875 C 5.210938 -43.5625 6.316406 -43.90625 7.734375 -43.90625 C 9.191406 -43.90625 10.304688 -43.5625 11.078125 -42.875 C 11.847656 -42.1875 12.234375 -41.191406 12.234375 -39.890625 C 12.234375 -38.628906 11.847656 -37.644531 11.078125 -36.9375 C 10.304688 -36.226562 9.191406 -35.875 7.734375 -35.875 Z M 7.734375 -35.875 "/></g></g></g><g fill="#ffffff" fill-opacity="1"><g transform="translate(181.975628, 94.998043)"><g><path d="M 17.609375 0.609375 C 14.960938 0.609375 12.753906 0.160156 10.984375 -0.734375 C 9.222656 -1.628906 7.914062 -2.9375 7.0625 -4.65625 C 6.207031 -6.382812 5.78125 -8.523438 5.78125 -11.078125 L 5.78125 -24.0625 L 2.625 -24.0625 C 1.644531 -24.0625 0.890625 -24.3125 0.359375 -24.8125 C -0.160156 -25.320312 -0.421875 -26.023438 -0.421875 -26.921875 C -0.421875 -27.859375 -0.160156 -28.566406 0.359375 -29.046875 C 0.890625 -29.535156 1.644531 -29.78125 2.625 -29.78125 L 5.78125 -29.78125 L 5.78125 -35.328125 C 5.78125 -36.585938 6.113281 -37.539062 6.78125 -38.1875 C 7.457031 -38.832031 8.40625 -39.15625 9.625 -39.15625 C 10.84375 -39.15625 11.773438 -38.832031 12.421875 -38.1875 C 13.078125 -37.539062 13.40625 -36.585938 13.40625 -35.328125 L 13.40625 -29.78125 L 19.859375 -29.78125 C 20.828125 -29.78125 21.578125 -29.535156 22.109375 -29.046875 C 22.640625 -28.566406 22.90625 -27.859375 22.90625 -26.921875 C 22.90625 -26.023438 22.640625 -25.320312 22.109375 -24.8125 C 21.578125 -24.3125 20.828125 -24.0625 19.859375 -24.0625 L 13.40625 -24.0625 L 13.40625 -11.515625 C 13.40625 -9.566406 13.828125 -8.101562 14.671875 -7.125 C 15.523438 -6.15625 16.90625 -5.671875 18.8125 -5.671875 C 19.507812 -5.671875 20.117188 -5.726562 20.640625 -5.84375 C 21.171875 -5.96875 21.640625 -6.050781 22.046875 -6.09375 C 22.535156 -6.132812 22.941406 -5.976562 23.265625 -5.625 C 23.585938 -5.28125 23.75 -4.582031 23.75 -3.53125 C 23.75 -2.71875 23.617188 -1.992188 23.359375 -1.359375 C 23.097656 -0.734375 22.617188 -0.300781 21.921875 -0.0625 C 21.398438 0.101562 20.710938 0.253906 19.859375 0.390625 C 19.003906 0.535156 18.253906 0.609375 17.609375 0.609375 Z M 17.609375 0.609375 "/></g></g></g><g fill="#ffffff" fill-opacity="1"><g transform="translate(205.357622, 94.998043)"><g><path d="M 13.765625 0.609375 C 11.609375 0.609375 9.6875 0.191406 8 -0.640625 C 6.320312 -1.472656 5.003906 -2.597656 4.046875 -4.015625 C 3.097656 -5.441406 2.625 -7.046875 2.625 -8.828125 C 2.625 -11.023438 3.191406 -12.757812 4.328125 -14.03125 C 5.460938 -15.3125 7.304688 -16.234375 9.859375 -16.796875 C 12.421875 -17.367188 15.851562 -17.65625 20.15625 -17.65625 L 23.203125 -17.65625 L 23.203125 -13.28125 L 20.21875 -13.28125 C 17.695312 -13.28125 15.6875 -13.15625 14.1875 -12.90625 C 12.6875 -12.664062 11.617188 -12.25 10.984375 -11.65625 C 10.359375 -11.070312 10.046875 -10.253906 10.046875 -9.203125 C 10.046875 -7.859375 10.507812 -6.757812 11.4375 -5.90625 C 12.375 -5.050781 13.675781 -4.625 15.34375 -4.625 C 16.6875 -4.625 17.875 -4.9375 18.90625 -5.5625 C 19.945312 -6.195312 20.769531 -7.0625 21.375 -8.15625 C 21.988281 -9.257812 22.296875 -10.519531 22.296875 -11.9375 L 22.296875 -18.9375 C 22.296875 -20.96875 21.847656 -22.429688 20.953125 -23.328125 C 20.054688 -24.222656 18.550781 -24.671875 16.4375 -24.671875 C 15.257812 -24.671875 13.988281 -24.523438 12.625 -24.234375 C 11.269531 -23.953125 9.84375 -23.46875 8.34375 -22.78125 C 7.570312 -22.414062 6.890625 -22.3125 6.296875 -22.46875 C 5.710938 -22.632812 5.257812 -22.96875 4.9375 -23.46875 C 4.613281 -23.976562 4.453125 -24.535156 4.453125 -25.140625 C 4.453125 -25.753906 4.613281 -26.351562 4.9375 -26.9375 C 5.257812 -27.53125 5.804688 -27.972656 6.578125 -28.265625 C 8.441406 -29.035156 10.238281 -29.582031 11.96875 -29.90625 C 13.695312 -30.226562 15.269531 -30.390625 16.6875 -30.390625 C 19.613281 -30.390625 22.019531 -29.941406 23.90625 -29.046875 C 25.789062 -28.160156 27.203125 -26.8125 28.140625 -25 C 29.078125 -23.195312 29.546875 -20.875 29.546875 -18.03125 L 29.546875 -3.40625 C 29.546875 -2.144531 29.238281 -1.179688 28.625 -0.515625 C 28.019531 0.148438 27.144531 0.484375 26 0.484375 C 24.863281 0.484375 23.976562 0.148438 23.34375 -0.515625 C 22.71875 -1.179688 22.40625 -2.144531 22.40625 -3.40625 L 22.40625 -6.328125 L 22.90625 -6.328125 C 22.613281 -4.910156 22.050781 -3.679688 21.21875 -2.640625 C 20.394531 -1.609375 19.351562 -0.804688 18.09375 -0.234375 C 16.832031 0.328125 15.390625 0.609375 13.765625 0.609375 Z M 13.765625 0.609375 "/></g></g></g><g fill="#ffffff" fill-opacity="1"><g transform="translate(238.664791, 94.998043)"><g><path d="M 7.859375 0.484375 C 6.597656 0.484375 5.628906 0.148438 4.953125 -0.515625 C 4.285156 -1.179688 3.953125 -2.144531 3.953125 -3.40625 L 3.953125 -26.4375 C 3.953125 -27.695312 4.273438 -28.648438 4.921875 -29.296875 C 5.578125 -29.941406 6.492188 -30.265625 7.671875 -30.265625 C 8.847656 -30.265625 9.757812 -29.941406 10.40625 -29.296875 C 11.0625 -28.648438 11.390625 -27.695312 11.390625 -26.4375 L 11.390625 -22.59375 L 10.78125 -22.59375 C 11.351562 -25.03125 12.46875 -26.878906 14.125 -28.140625 C 15.789062 -29.398438 18.003906 -30.148438 20.765625 -30.390625 C 21.617188 -30.472656 22.300781 -30.257812 22.8125 -29.75 C 23.320312 -29.238281 23.613281 -28.457031 23.6875 -27.40625 C 23.769531 -26.394531 23.535156 -25.570312 22.984375 -24.9375 C 22.441406 -24.3125 21.625 -23.9375 20.53125 -23.8125 L 19.1875 -23.6875 C 16.707031 -23.445312 14.835938 -22.6875 13.578125 -21.40625 C 12.316406 -20.125 11.6875 -18.328125 11.6875 -16.015625 L 11.6875 -3.40625 C 11.6875 -2.144531 11.363281 -1.179688 10.71875 -0.515625 C 10.070312 0.148438 9.117188 0.484375 7.859375 0.484375 Z M 7.859375 0.484375 "/></g></g></g><g fill="#7fb069" fill-opacity="1"><g transform="translate(262.545328, 94.998043)"><g><path d="M 25.34375 0.609375 C 20.59375 0.609375 16.582031 -0.28125 13.3125 -2.0625 C 10.039062 -3.851562 7.550781 -6.394531 5.84375 -9.6875 C 4.132812 -12.976562 3.28125 -16.875 3.28125 -21.375 C 3.28125 -24.789062 3.773438 -27.859375 4.765625 -30.578125 C 5.765625 -33.296875 7.207031 -35.617188 9.09375 -37.546875 C 10.988281 -39.472656 13.296875 -40.953125 16.015625 -41.984375 C 18.734375 -43.023438 21.820312 -43.546875 25.28125 -43.546875 C 27.550781 -43.546875 29.832031 -43.269531 32.125 -42.71875 C 34.414062 -42.175781 36.578125 -41.253906 38.609375 -39.953125 C 39.304688 -39.503906 39.765625 -38.953125 39.984375 -38.296875 C 40.203125 -37.648438 40.226562 -36.992188 40.0625 -36.328125 C 39.90625 -35.660156 39.601562 -35.082031 39.15625 -34.59375 C 38.71875 -34.101562 38.160156 -33.796875 37.484375 -33.671875 C 36.816406 -33.554688 36.078125 -33.722656 35.265625 -34.171875 C 33.722656 -35.066406 32.160156 -35.710938 30.578125 -36.109375 C 28.992188 -36.515625 27.226562 -36.71875 25.28125 -36.71875 C 22.269531 -36.71875 19.726562 -36.117188 17.65625 -34.921875 C 15.59375 -33.734375 14.039062 -32 13 -29.71875 C 11.96875 -27.445312 11.453125 -24.664062 11.453125 -21.375 C 11.453125 -16.382812 12.648438 -12.585938 15.046875 -9.984375 C 17.441406 -7.390625 20.992188 -6.09375 25.703125 -6.09375 C 27.328125 -6.09375 28.972656 -6.253906 30.640625 -6.578125 C 32.304688 -6.898438 33.929688 -7.347656 35.515625 -7.921875 L 33.984375 -4.453125 L 33.984375 -17.421875 L 27.28125 -17.421875 C 26.269531 -17.421875 25.488281 -17.679688 24.9375 -18.203125 C 24.394531 -18.734375 24.125 -19.445312 24.125 -20.34375 C 24.125 -21.28125 24.394531 -21.988281 24.9375 -22.46875 C 25.488281 -22.957031 26.269531 -23.203125 27.28125 -23.203125 L 37.328125 -23.203125 C 38.347656 -23.203125 39.128906 -22.925781 39.671875 -22.375 C 40.222656 -21.832031 40.5 -21.050781 40.5 -20.03125 L 40.5 -5.234375 C 40.5 -4.335938 40.328125 -3.585938 39.984375 -2.984375 C 39.640625 -2.378906 39.082031 -1.929688 38.3125 -1.640625 C 36.519531 -0.992188 34.46875 -0.457031 32.15625 -0.03125 C 29.84375 0.394531 27.570312 0.609375 25.34375 0.609375 Z M 25.34375 0.609375 "/></g></g></g><g fill="#7fb069" fill-opacity="1"><g transform="translate(307.360824, 94.998043)"><g><path d="M 23.9375 0.609375 C 19.789062 0.609375 16.164062 -0.300781 13.0625 -2.125 C 9.957031 -3.957031 7.550781 -6.523438 5.84375 -9.828125 C 4.132812 -13.140625 3.28125 -17.03125 3.28125 -21.5 C 3.28125 -24.875 3.769531 -27.910156 4.75 -30.609375 C 5.726562 -33.304688 7.117188 -35.617188 8.921875 -37.546875 C 10.734375 -39.472656 12.90625 -40.953125 15.4375 -41.984375 C 17.976562 -43.023438 20.8125 -43.546875 23.9375 -43.546875 C 28.113281 -43.546875 31.742188 -42.640625 34.828125 -40.828125 C 37.921875 -39.023438 40.316406 -36.476562 42.015625 -33.1875 C 43.722656 -29.90625 44.578125 -26.03125 44.578125 -21.5625 C 44.578125 -18.1875 44.085938 -15.140625 43.109375 -12.421875 C 42.140625 -9.703125 40.75 -7.367188 38.9375 -5.421875 C 37.132812 -3.472656 34.960938 -1.976562 32.421875 -0.9375 C 29.890625 0.09375 27.0625 0.609375 23.9375 0.609375 Z M 23.9375 -6.09375 C 26.570312 -6.09375 28.8125 -6.703125 30.65625 -7.921875 C 32.507812 -9.140625 33.929688 -10.90625 34.921875 -13.21875 C 35.921875 -15.53125 36.421875 -18.289062 36.421875 -21.5 C 36.421875 -26.375 35.332031 -30.148438 33.15625 -32.828125 C 30.988281 -35.503906 27.914062 -36.84375 23.9375 -36.84375 C 21.332031 -36.84375 19.097656 -36.242188 17.234375 -35.046875 C 15.367188 -33.847656 13.9375 -32.101562 12.9375 -29.8125 C 11.945312 -27.519531 11.453125 -24.75 11.453125 -21.5 C 11.453125 -16.664062 12.546875 -12.890625 14.734375 -10.171875 C 16.929688 -7.453125 20 -6.09375 23.9375 -6.09375 Z M 23.9375 -6.09375 "/></g></g></g></svg>