<svg xmlns="http://www.w3.org/2000/svg" xmlns:xlink="http://www.w3.org/1999/xlink" width="500" zoomAndPan="magnify" viewBox="0 0 375 374.999991" height="500" preserveAspectRatio="xMidYMid meet" version="1.0"><path stroke-linecap="butt" transform="matrix(0.195089, 0, 0, 0.195089, 123.292379, 0.468214)" fill-opacity="1" fill="#7fb069" fill-rule="evenodd" stroke-linejoin="round" d="M 335.026458 1.003896 C 331.382288 1.043942 327.197498 1.844858 322.1317 3.787081 C 308.776415 -2.4 297.34333 4.427814 285.689993 8.592581 C 265.366733 15.880922 257.65791 14.599456 250.149316 12.537095 C 243.061204 10.594873 242.640723 16.96216 243.481685 21.947866 C 245.624137 34.962762 247.766589 51.621828 249.548629 70.363278 L 245.904458 70.343255 C 244.923335 67.560069 243.181342 66.278603 241.03889 66.138442 C 240.578363 63.815784 239.937629 61.553194 238.596094 59.510857 L 207.640665 54.86554 C 207.640665 54.86554 207.460459 56.046892 207.420413 56.287167 C 205.878649 60.512003 205.097755 65.497709 204.296838 70.123003 C 203.175555 71.244286 202.574868 72.565798 202.574868 73.887311 C 202.574868 75.228846 203.175555 76.530336 204.296838 77.671642 C 205.177847 81.956546 206.058855 86.762046 207.420413 91.507477 C 207.460459 91.727729 207.640665 92.909081 207.640665 92.909081 L 238.656163 87.162504 C 239.457079 85.540648 240.237973 84.639617 241.03889 80.9554 C 243.121273 80.394759 244.983404 79.914209 245.904458 76.290061 L 250.089248 76.310084 L 250.129294 76.910771 C 251.75115 95.492037 252.992571 115.855343 253.513166 136.819337 L 249.909041 136.799314 C 248.927919 134.016128 247.185925 132.734662 245.02345 132.594501 C 244.582946 130.271843 243.92219 127.98923 242.600677 125.966916 L 211.625226 121.321599 C 211.625226 121.321599 211.445019 122.502951 211.404974 122.723204 C 209.883232 126.968062 209.102338 131.953768 208.281399 136.559039 C 207.180138 137.700345 206.579451 139.001834 206.579451 140.34337 C 206.579451 141.684905 207.180138 142.986395 208.281399 144.107678 C 209.162407 148.412605 210.043415 153.218105 211.424996 157.963536 C 211.465042 158.183788 211.625226 159.36514 211.625226 159.36514 L 242.660746 153.59854 C 243.44164 151.996707 244.242556 151.095676 245.02345 147.411459 C 247.125856 146.850818 248.967964 146.370268 249.909041 142.74612 L 253.613281 142.74612 L 253.633304 142.986395 C 253.993716 163.509884 253.653327 184.433831 252.291769 204.536839 L 247.90675 204.516816 C 246.925627 201.733631 245.183633 200.452164 243.041181 200.312004 C 242.580654 197.989346 241.939921 195.726756 240.598385 193.684419 L 209.622934 189.039102 C 209.622934 189.039102 209.442728 190.220454 209.422705 190.460729 C 207.88094 194.685564 207.100047 199.671271 206.279107 204.296564 C 205.177847 205.417848 204.577159 206.719337 204.577159 208.060872 C 204.577159 209.402408 205.177847 210.703897 206.279107 211.825181 C 207.180138 216.130108 208.061147 220.935608 209.422705 225.681039 C 209.462751 225.901291 209.622934 227.082643 209.622934 227.082643 L 240.658454 221.336066 C 241.459371 219.71421 242.240265 218.813179 243.041181 215.128962 C 245.123565 214.56832 246.985696 214.08777 247.90675 210.463622 L 251.811219 210.463622 L 251.791196 210.683875 C 251.590966 213.086624 251.430783 215.509397 251.210531 217.872101 C 250.569798 224.699916 251.771173 229.445347 258.919354 233.469953 C 271.353585 240.51802 281.024653 259.639905 280.824424 280.403669 L 272.935395 1160.871364 C 268.770629 1162.633381 265.887329 1165.156268 264.585839 1168.640256 C 219.954759 1250.894396 134.116517 1182.395999 168.375727 1102.484541 C 172.840837 1082.441601 157.623421 1085.144695 146.030152 1092.172739 C 83.458539 1130.116165 27.794832 1249.152402 77.171343 1387.991303 C 99.056391 1449.561771 130.512392 1480.056672 70.90417 1553.821095 C 20.50649 1611.18675 -35.577698 1712.823073 31.779392 1817.202536 C 85.240578 1883.658595 188.638918 1919.339431 333.304488 1918.999042 C 404.926459 1918.818835 559.723624 1913.97329 631.746054 1816.982284 C 672.57278 1761.979333 693.877163 1643.984287 577.083493 1526.309609 C 523.602283 1439.770565 586.113828 1402.227597 595.384438 1327.9626 C 602.032046 1274.701643 599.288907 1206.864003 528.968425 1132.018342 C 515.513025 1117.701957 509.185784 1122.267182 507.704088 1138.846157 C 501.316778 1209.807372 432.437946 1226.746759 395.015115 1168.299866 C 392.872663 1164.956039 387.586614 1161.932579 387.586614 1161.932579 L 364.21987 279.963165 C 363.819412 265.046092 368.464729 244.602695 387.42643 232.288601 C 391.651266 229.525439 394.174153 224.279435 393.853786 218.552881 C 393.53342 215.849787 393.273122 213.306877 392.992801 210.663852 L 392.952755 210.463622 L 396.656995 210.4436 C 397.578049 214.067747 399.44018 214.56832 401.522563 215.128962 C 402.32348 218.813179 403.104374 219.71421 403.90529 221.316043 L 434.920787 227.082643 C 434.920787 227.082643 435.100994 225.901291 435.14104 225.681039 C 436.502598 220.935608 437.383606 216.110085 438.264614 211.825181 C 439.385898 210.703897 439.986585 209.382385 439.986585 208.060872 C 439.986585 206.719337 439.385898 205.417848 438.264614 204.276541 C 437.463698 199.671271 436.682804 194.685564 435.14104 190.440706 C 435.100994 190.220454 434.920787 189.019079 434.920787 189.019079 L 403.965359 193.664396 C 402.623824 195.706733 401.98309 197.969323 401.522563 200.312004 C 399.380111 200.432141 397.638117 201.733631 396.656995 204.516816 L 392.312022 204.536839 C 389.969341 181.870898 388.908126 161.527615 388.787988 142.966372 L 388.787988 142.74612 L 392.892686 142.726097 C 393.833763 146.350245 395.675872 146.830795 397.778278 147.411459 C 398.579195 151.095676 399.360088 151.976684 400.161005 153.59854 L 431.176502 159.345117 C 431.176502 159.345117 431.356708 158.183788 431.396754 157.943513 C 432.758313 153.218105 433.639321 148.392582 434.520329 144.107678 C 435.641612 142.986395 436.222277 141.664882 436.2423 140.34337 C 436.222277 139.001834 435.641612 137.700345 434.520329 136.559039 C 433.69939 131.953768 432.918496 126.948039 431.396754 122.723204 C 431.356708 122.502951 431.176502 121.301576 431.176502 121.301576 L 400.201051 125.946893 C 398.879538 127.98923 398.218782 130.25182 397.778278 132.594501 C 395.635826 132.714639 393.873809 134.016128 392.912709 136.799314 L 388.828034 136.819337 C 388.948172 114.754083 390.349776 95.131625 392.432159 76.910771 L 392.512251 76.290061 L 396.89727 76.290061 C 397.838347 79.894186 399.680455 80.394759 401.782861 80.9554 C 402.563755 84.639617 403.364672 85.540648 404.145565 87.142481 L 435.181085 92.909081 C 435.181085 92.909081 435.341269 91.727729 435.381315 91.507477 C 436.762896 86.762046 437.643904 81.956546 438.524912 77.651619 C 439.626173 76.530336 440.22686 75.228846 440.22686 73.887311 C 440.22686 72.545775 439.646196 71.244286 438.524912 70.10298 C 437.703973 65.497709 436.923079 60.512003 435.401337 56.267145 C 435.361292 56.046892 435.181085 54.86554 435.181085 54.86554 L 404.205634 59.510857 C 402.884122 61.533172 402.223365 63.795761 401.782861 66.138442 C 399.620386 66.25858 397.878392 67.560069 396.89727 70.343255 L 393.213053 70.363278 C 395.275413 53.924463 397.778278 38.506818 400.301165 23.329447 C 401.943044 13.398081 397.618095 13.338012 394.935024 13.658379 C 383.501939 15.059983 373.110045 14.639502 361.216433 10.654941 C 351.885754 7.531366 345.938948 0.863735 335.006435 1.003896 Z M 335.026458 1.003896 " stroke="#000000" stroke-width="0.991" stroke-opacity="1" stroke-miterlimit="4"/></svg>